<svg width="591" height="768" viewBox="0 0 591 768" fill="none" xmlns="http://www.w3.org/2000/svg">
<rect width="591" height="757" fill="#C4C4C4"/>
<rect y="33" width="514" height="721" fill="#1762A7"/>
<rect y="754" width="591" height="14" fill="#C4C4C4"/>
<path d="M113.673 357.448H125.385V361H109.305V327.544H113.673V357.448ZM145.192 361.336C142.088 361.336 139.256 360.616 136.696 359.176C134.136 357.704 132.104 355.672 130.6 353.08C129.128 350.456 128.392 347.512 128.392 344.248C128.392 340.984 129.128 338.056 130.6 335.464C132.104 332.84 134.136 330.808 136.696 329.368C139.256 327.896 142.088 327.16 145.192 327.16C148.328 327.16 151.176 327.896 153.736 329.368C156.296 330.808 158.312 332.824 159.784 335.416C161.256 338.008 161.992 340.952 161.992 344.248C161.992 347.544 161.256 350.488 159.784 353.08C158.312 355.672 156.296 357.704 153.736 359.176C151.176 360.616 148.328 361.336 145.192 361.336ZM145.192 357.544C147.528 357.544 149.624 357 151.48 355.912C153.368 354.824 154.84 353.272 155.896 351.256C156.984 349.24 157.528 346.904 157.528 344.248C157.528 341.56 156.984 339.224 155.896 337.24C154.84 335.224 153.384 333.672 151.528 332.584C149.672 331.496 147.56 330.952 145.192 330.952C142.824 330.952 140.712 331.496 138.856 332.584C137 333.672 135.528 335.224 134.44 337.24C133.384 339.224 132.856 341.56 132.856 344.248C132.856 346.904 133.384 349.24 134.44 351.256C135.528 353.272 137 354.824 138.856 355.912C140.744 357 142.856 357.544 145.192 357.544ZM209.807 327.544L200.111 361H195.215L187.439 334.072L179.375 361L174.527 361.048L165.167 327.544H169.823L177.119 355.912L185.183 327.544H190.079L197.759 355.816L205.103 327.544H209.807ZM244.136 343.768C245.352 343.96 246.456 344.456 247.448 345.256C248.472 346.056 249.272 347.048 249.848 348.232C250.456 349.416 250.76 350.68 250.76 352.024C250.76 353.72 250.328 355.256 249.464 356.632C248.6 357.976 247.336 359.048 245.672 359.848C244.04 360.616 242.104 361 239.864 361H227.384V327.544H239.384C241.656 327.544 243.592 327.928 245.192 328.696C246.792 329.432 247.992 330.44 248.792 331.72C249.592 333 249.992 334.44 249.992 336.04C249.992 338.024 249.448 339.672 248.359 340.984C247.304 342.264 245.896 343.192 244.136 343.768ZM231.752 341.992H239.096C241.144 341.992 242.728 341.512 243.848 340.552C244.968 339.592 245.528 338.264 245.528 336.568C245.528 334.872 244.968 333.544 243.848 332.584C242.728 331.624 241.112 331.144 239 331.144H231.752V341.992ZM239.48 357.4C241.656 357.4 243.352 356.888 244.568 355.864C245.784 354.84 246.392 353.416 246.392 351.592C246.392 349.736 245.752 348.28 244.472 347.224C243.192 346.136 241.48 345.592 239.336 345.592H231.752V357.4H239.48ZM261.093 327.544V348.712C261.093 351.688 261.813 353.896 263.253 355.336C264.725 356.776 266.757 357.496 269.349 357.496C271.909 357.496 273.909 356.776 275.349 355.336C276.821 353.896 277.557 351.688 277.557 348.712V327.544H281.925V348.664C281.925 351.448 281.365 353.8 280.245 355.72C279.125 357.608 277.605 359.016 275.685 359.944C273.797 360.872 271.669 361.336 269.301 361.336C266.933 361.336 264.789 360.872 262.869 359.944C260.981 359.016 259.477 357.608 258.357 355.72C257.269 353.8 256.725 351.448 256.725 348.664V327.544H261.093ZM299.628 327.544C303.276 327.544 306.428 328.232 309.084 329.608C311.772 330.952 313.82 332.888 315.228 335.416C316.668 337.944 317.388 340.92 317.388 344.344C317.388 347.768 316.668 350.744 315.228 353.272C313.82 355.768 311.772 357.688 309.084 359.032C306.428 360.344 303.276 361 299.628 361H289.212V327.544H299.628ZM299.628 357.4C303.948 357.4 307.244 356.264 309.516 353.992C311.788 351.688 312.924 348.472 312.924 344.344C312.924 340.184 311.772 336.936 309.468 334.6C307.196 332.264 303.916 331.096 299.628 331.096H293.58V357.4H299.628ZM348.493 337.24C347.565 335.288 346.221 333.784 344.461 332.728C342.701 331.64 340.653 331.096 338.317 331.096C335.981 331.096 333.869 331.64 331.981 332.728C330.125 333.784 328.653 335.32 327.565 337.336C326.509 339.32 325.981 341.624 325.981 344.248C325.981 346.872 326.509 349.176 327.565 351.16C328.653 353.144 330.125 354.68 331.981 355.768C333.869 356.824 335.981 357.352 338.317 357.352C341.581 357.352 344.269 356.376 346.381 354.424C348.493 352.472 349.725 349.832 350.077 346.504H336.733V342.952H354.733V346.312C354.477 349.064 353.613 351.592 352.141 353.896C350.669 356.168 348.733 357.976 346.333 359.32C343.933 360.632 341.261 361.288 338.317 361.288C335.213 361.288 332.381 360.568 329.821 359.128C327.261 357.656 325.229 355.624 323.725 353.032C322.253 350.44 321.517 347.512 321.517 344.248C321.517 340.984 322.253 338.056 323.725 335.464C325.229 332.84 327.261 330.808 329.821 329.368C332.381 327.896 335.213 327.16 338.317 327.16C341.869 327.16 345.005 328.04 347.725 329.8C350.477 331.56 352.477 334.04 353.725 337.24H348.493ZM364.877 331.096V342.28H377.069V345.88H364.877V357.4H378.509V361H360.509V327.496H378.509V331.096H364.877ZM405.71 327.544V331.096H396.59V361H392.222V331.096H383.054V327.544H405.71ZM186.171 433L178.203 419.32H172.923V433H168.555V399.544H179.355C181.883 399.544 184.011 399.976 185.739 400.84C187.499 401.704 188.811 402.872 189.675 404.344C190.539 405.816 190.971 407.496 190.971 409.384C190.971 411.688 190.299 413.72 188.955 415.48C187.643 417.24 185.659 418.408 183.003 418.984L191.403 433H186.171ZM172.923 415.816H179.355C181.723 415.816 183.499 415.24 184.683 414.088C185.867 412.904 186.459 411.336 186.459 409.384C186.459 407.4 185.867 405.864 184.683 404.776C183.531 403.688 181.755 403.144 179.355 403.144H172.923V415.816ZM202.127 403.096V414.28H214.319V417.88H202.127V429.4H215.759V433H197.759V399.496H215.759V403.096H202.127ZM220.736 416.248C220.736 412.984 221.472 410.056 222.944 407.464C224.416 404.84 226.416 402.792 228.944 401.32C231.504 399.848 234.336 399.112 237.44 399.112C241.088 399.112 244.272 399.992 246.992 401.752C249.712 403.512 251.696 406.008 252.944 409.24H247.712C246.784 407.224 245.44 405.672 243.68 404.584C241.952 403.496 239.872 402.952 237.44 402.952C235.104 402.952 233.008 403.496 231.152 404.584C229.296 405.672 227.84 407.224 226.784 409.24C225.728 411.224 225.2 413.56 225.2 416.248C225.2 418.904 225.728 421.24 226.784 423.256C227.84 425.24 229.296 426.776 231.152 427.864C233.008 428.952 235.104 429.496 237.44 429.496C239.872 429.496 241.952 428.968 243.68 427.912C245.44 426.824 246.784 425.272 247.712 423.256H252.944C251.696 426.456 249.712 428.936 246.992 430.696C244.272 432.424 241.088 433.288 237.44 433.288C234.336 433.288 231.504 432.568 228.944 431.128C226.416 429.656 224.416 427.624 222.944 425.032C221.472 422.44 220.736 419.512 220.736 416.248ZM263.814 399.544V433H259.446V399.544H263.814ZM293.627 409.336C293.627 412.12 292.667 414.44 290.747 416.296C288.859 418.12 285.963 419.032 282.059 419.032H275.627V433H271.259V399.544H282.059C285.835 399.544 288.699 400.456 290.651 402.28C292.635 404.104 293.627 406.456 293.627 409.336ZM282.059 415.432C284.491 415.432 286.283 414.904 287.435 413.848C288.587 412.792 289.163 411.288 289.163 409.336C289.163 405.208 286.795 403.144 282.059 403.144H275.627V415.432H282.059ZM303.423 403.096V414.28H315.615V417.88H303.423V429.4H317.055V433H299.055V399.496H317.055V403.096H303.423ZM334.273 433.336C332.065 433.336 330.081 432.952 328.321 432.184C326.593 431.384 325.233 430.296 324.241 428.92C323.249 427.512 322.737 425.896 322.705 424.072H327.361C327.521 425.64 328.161 426.968 329.281 428.056C330.433 429.112 332.097 429.64 334.273 429.64C336.353 429.64 337.985 429.128 339.169 428.104C340.385 427.048 340.993 425.704 340.993 424.072C340.993 422.792 340.641 421.752 339.937 420.952C339.233 420.152 338.353 419.544 337.297 419.128C336.241 418.712 334.817 418.264 333.025 417.784C330.817 417.208 329.041 416.632 327.697 416.056C326.385 415.48 325.249 414.584 324.289 413.368C323.361 412.12 322.897 410.456 322.897 408.376C322.897 406.552 323.361 404.936 324.289 403.528C325.217 402.12 326.513 401.032 328.177 400.264C329.873 399.496 331.809 399.112 333.985 399.112C337.121 399.112 339.681 399.896 341.665 401.464C343.681 403.032 344.817 405.112 345.073 407.704H340.273C340.113 406.424 339.441 405.304 338.257 404.344C337.073 403.352 335.505 402.856 333.553 402.856C331.729 402.856 330.241 403.336 329.089 404.296C327.937 405.224 327.361 406.536 327.361 408.232C327.361 409.448 327.697 410.44 328.369 411.208C329.073 411.976 329.921 412.568 330.913 412.984C331.937 413.368 333.361 413.816 335.185 414.328C337.393 414.936 339.169 415.544 340.513 416.152C341.857 416.728 343.009 417.64 343.969 418.888C344.929 420.104 345.409 421.768 345.409 423.88C345.409 425.512 344.977 427.048 344.113 428.488C343.249 429.928 341.969 431.096 340.273 431.992C338.577 432.888 336.577 433.336 334.273 433.336Z" fill="white"/>
</svg>
