<svg width="98" height="91" viewBox="0 0 98 91" fill="none" xmlns="http://www.w3.org/2000/svg">
<ellipse cx="82" cy="48" rx="2" ry="2" fill="white"/>
<path d="M24.8869 40.136V50H23.2489V48.542C22.9369 49.046 22.4989 49.442 21.9349 49.73C21.3829 50.006 20.7709 50.144 20.0989 50.144C19.3309 50.144 18.6409 49.988 18.0289 49.676C17.4169 49.352 16.9309 48.872 16.5709 48.236C16.2229 47.6 16.0489 46.826 16.0489 45.914V40.136H17.6689V45.698C17.6689 46.67 17.9149 47.42 18.4069 47.948C18.8989 48.464 19.5709 48.722 20.4229 48.722C21.2989 48.722 21.9889 48.452 22.4929 47.912C22.9969 47.372 23.2489 46.586 23.2489 45.554V40.136H24.8869ZM27.0406 43.718C27.0406 42.494 27.3166 41.396 27.8686 40.424C28.4206 39.44 29.1706 38.672 30.1186 38.12C31.0786 37.568 32.1406 37.292 33.3046 37.292C34.6726 37.292 35.8666 37.622 36.8866 38.282C37.9066 38.942 38.6506 39.878 39.1186 41.09H37.1566C36.8086 40.334 36.3046 39.752 35.6446 39.344C34.9966 38.936 34.2166 38.732 33.3046 38.732C32.4286 38.732 31.6426 38.936 30.9466 39.344C30.2506 39.752 29.7046 40.334 29.3086 41.09C28.9126 41.834 28.7146 42.71 28.7146 43.718C28.7146 44.714 28.9126 45.59 29.3086 46.346C29.7046 47.09 30.2506 47.666 30.9466 48.074C31.6426 48.482 32.4286 48.686 33.3046 48.686C34.2166 48.686 34.9966 48.488 35.6446 48.092C36.3046 47.684 36.8086 47.102 37.1566 46.346H39.1186C38.6506 47.546 37.9066 48.476 36.8866 49.136C35.8666 49.784 34.6726 50.108 33.3046 50.108C32.1406 50.108 31.0786 49.838 30.1186 49.298C29.1706 48.746 28.4206 47.984 27.8686 47.012C27.3166 46.04 27.0406 44.942 27.0406 43.718ZM47.2449 50.126C46.0809 50.126 45.0189 49.856 44.0589 49.316C43.0989 48.764 42.3369 48.002 41.7729 47.03C41.2209 46.046 40.9449 44.942 40.9449 43.718C40.9449 42.494 41.2209 41.396 41.7729 40.424C42.3369 39.44 43.0989 38.678 44.0589 38.138C45.0189 37.586 46.0809 37.31 47.2449 37.31C48.4209 37.31 49.4889 37.586 50.4489 38.138C51.4089 38.678 52.1649 39.434 52.7169 40.406C53.2689 41.378 53.5449 42.482 53.5449 43.718C53.5449 44.954 53.2689 46.058 52.7169 47.03C52.1649 48.002 51.4089 48.764 50.4489 49.316C49.4889 49.856 48.4209 50.126 47.2449 50.126ZM47.2449 48.704C48.1209 48.704 48.9069 48.5 49.6029 48.092C50.3109 47.684 50.8629 47.102 51.2589 46.346C51.6669 45.59 51.8709 44.714 51.8709 43.718C51.8709 42.71 51.6669 41.834 51.2589 41.09C50.8629 40.334 50.3169 39.752 49.6209 39.344C48.9249 38.936 48.1329 38.732 47.2449 38.732C46.3569 38.732 45.5649 38.936 44.8689 39.344C44.1729 39.752 43.6209 40.334 43.2129 41.09C42.8169 41.834 42.6189 42.71 42.6189 43.718C42.6189 44.714 42.8169 45.59 43.2129 46.346C43.6209 47.102 44.1729 47.684 44.8689 48.092C45.5769 48.5 46.3689 48.704 47.2449 48.704ZM61.3953 50.126C60.2313 50.126 59.1693 49.856 58.2093 49.316C57.2493 48.764 56.4873 48.002 55.9233 47.03C55.3713 46.046 55.0953 44.942 55.0953 43.718C55.0953 42.494 55.3713 41.396 55.9233 40.424C56.4873 39.44 57.2493 38.678 58.2093 38.138C59.1693 37.586 60.2313 37.31 61.3953 37.31C62.5713 37.31 63.6393 37.586 64.5993 38.138C65.5593 38.678 66.3153 39.434 66.8673 40.406C67.4193 41.378 67.6953 42.482 67.6953 43.718C67.6953 44.954 67.4193 46.058 66.8673 47.03C66.3153 48.002 65.5593 48.764 64.5993 49.316C63.6393 49.856 62.5713 50.126 61.3953 50.126ZM61.3953 48.704C62.2713 48.704 63.0573 48.5 63.7533 48.092C64.4613 47.684 65.0133 47.102 65.4093 46.346C65.8173 45.59 66.0213 44.714 66.0213 43.718C66.0213 42.71 65.8173 41.834 65.4093 41.09C65.0133 40.334 64.4673 39.752 63.7713 39.344C63.0753 38.936 62.2833 38.732 61.3953 38.732C60.5073 38.732 59.7153 38.936 59.0193 39.344C58.3233 39.752 57.7713 40.334 57.3633 41.09C56.9673 41.834 56.7693 42.71 56.7693 43.718C56.7693 44.714 56.9673 45.59 57.3633 46.346C57.7713 47.102 58.3233 47.684 59.0193 48.092C59.7273 48.5 60.5193 48.704 61.3953 48.704ZM76.6617 50L71.4957 44.276V50H69.8577V37.454H71.4957V43.268L76.6797 37.454H78.7497L73.0617 43.736L78.8037 50H76.6617Z" fill="white"/>
<path d="M96.5 45.5C96.5 69.6978 75.3401 89.5 49 89.5C22.6598 89.5 1.5 69.6978 1.5 45.5C1.5 21.3022 22.6598 1.5 49 1.5C75.3401 1.5 96.5 21.3022 96.5 45.5Z" stroke="url(#paint0_linear_2_34)" stroke-width="3"/>
<defs>
<linearGradient id="paint0_linear_2_34" x1="49" y1="0" x2="49" y2="91" gradientUnits="userSpaceOnUse">
<stop stop-color="#79BCF9"/>
<stop offset="1" stop-color="#EAF4FD"/>
</linearGradient>
</defs>
</svg>
